<?xml version="1.0" standalone="no"?>
<!DOCTYPE svg PUBLIC "-//W3C//DTD SVG 20010904//EN"
 "http://www.w3.org/TR/2001/REC-SVG-20010904/DTD/svg10.dtd">
<svg version="1.0" xmlns="http://www.w3.org/2000/svg"
 width="100.000000pt" height="17.000000pt" viewBox="0 0 473.000000 68.000000"
 preserveAspectRatio="xMidYMid meet">

<g transform="translate(0.000000,68.000000) scale(0.100000,-0.100000)"
fill="#fff" stroke="none">
<path d="M1080 526 l0 -133 -34 31 c-83 79 -211 74 -297 -13 -38 -37 -49 -57
-59 -104 -49 -216 183 -372 352 -237 l38 31 0 -41 c0 -38 2 -40 30 -40 l30 0
0 320 0 320 -30 0 -30 0 0 -134z m-73 -127 c97 -60 97 -238 1 -297 -77 -47
-163 -37 -221 27 -40 45 -52 90 -42 157 8 54 60 119 109 134 44 13 112 4 153
-21z"/>
<path d="M169 334 c-74 -163 -135 -300 -137 -305 -2 -5 10 -9 27 -9 29 0 33 5
67 80 l37 80 171 0 171 0 35 -80 c33 -76 36 -80 67 -80 31 0 32 1 20 28 -7 16
-68 153 -137 305 -169 373 -142 374 -321 -19z m236 71 c37 -82 69 -156 72
-162 4 -10 -28 -13 -141 -13 -80 0 -146 3 -146 6 0 3 25 63 56 133 31 69 63
141 71 160 8 18 16 32 17 30 2 -2 33 -71 71 -154z"/>
<path d="M2930 605 c0 -24 2 -25 70 -25 l70 0 0 -280 0 -280 30 0 30 0 0 305
0 305 -100 0 -100 0 0 -25z"/>
<path d="M3340 609 c-25 -11 -55 -30 -67 -41 -21 -20 -22 -23 -7 -39 16 -18
19 -17 61 14 37 26 55 32 112 35 80 5 122 -12 146 -58 40 -77 14 -124 -165
-305 -103 -103 -150 -158 -150 -173 0 -22 0 -22 210 -22 l210 0 0 25 0 25
-165 0 c-91 0 -165 3 -165 8 0 4 53 59 119 122 152 148 176 183 176 266 0 75
-20 108 -85 142 -59 30 -165 30 -230 1z"/>
<path d="M3750 545 c0 -84 0 -85 25 -85 22 0 24 4 27 58 l3 57 158 3 c86 1
157 1 157 -1 0 -2 -56 -128 -124 -280 l-125 -277 33 0 32 0 127 285 c70 157
127 294 127 305 0 19 -7 20 -220 20 l-220 0 0 -85z"/>
<path d="M4429 616 c-112 -40 -169 -142 -169 -302 0 -192 83 -293 240 -294
170 0 265 150 177 281 -36 55 -98 81 -183 77 -77 -4 -127 -28 -158 -77 -15
-26 -15 -25 -16 34 0 113 36 185 110 223 49 24 138 30 187 11 23 -8 30 -7 40
7 19 27 16 32 -24 43 -52 15 -160 13 -204 -3z m146 -300 c94 -40 98 -183 6
-231 -39 -20 -124 -19 -168 2 -66 31 -92 112 -56 173 36 62 139 89 218 56z"/>
<path d="M1840 530 l0 -50 -40 0 c-36 0 -40 -3 -40 -24 0 -21 5 -25 38 -28
l37 -3 5 -165 c6 -183 12 -203 65 -226 44 -18 77 -18 120 0 36 15 40 22 27 43
-6 10 -16 10 -44 1 -53 -16 -95 3 -109 51 -5 20 -9 94 -7 166 l3 130 68 3 c64
3 67 4 67 27 0 24 -2 25 -70 25 l-70 0 0 50 c0 47 -2 50 -25 50 -23 0 -25 -3
-25 -50z"/>
<path d="M2170 530 l0 -50 -40 0 c-36 0 -40 -2 -40 -25 0 -22 4 -25 40 -25
l40 0 0 -150 c0 -165 9 -206 54 -235 38 -25 96 -30 139 -11 34 14 37 18 27 36
-9 16 -16 19 -33 13 -42 -15 -89 -8 -109 16 -16 20 -18 42 -18 177 l0 154 70
0 c68 0 70 1 70 25 0 24 -2 25 -70 25 l-70 0 0 50 c0 49 -1 50 -30 50 -29 0
-30 -1 -30 -50z"/>
<path d="M1372 462 c-30 -11 -61 -27 -70 -36 -14 -14 -15 -18 -1 -31 13 -13
19 -12 54 5 58 29 123 35 167 17 42 -18 63 -46 72 -99 l7 -38 -98 0 c-120 0
-164 -12 -197 -51 -31 -37 -36 -111 -10 -148 50 -71 199 -80 268 -16 15 14 29
25 32 25 2 0 4 -16 4 -35 0 -31 3 -35 26 -35 l25 0 -3 179 c-3 195 -6 206 -70
254 -38 28 -139 33 -206 9z m228 -268 c0 -53 -58 -110 -123 -119 -88 -13 -159
35 -143 98 10 43 48 56 164 57 l102 0 0 -36z"/>
<path d="M2572 462 c-69 -25 -87 -42 -70 -65 12 -16 16 -16 58 5 57 29 152 31
192 5 27 -19 48 -63 48 -103 0 -23 -2 -24 -92 -24 -112 0 -162 -13 -200 -50
-50 -50 -32 -152 33 -185 72 -38 170 -28 229 22 l30 25 0 -36 c0 -34 2 -36 31
-36 l31 0 -3 173 c-5 192 -14 223 -77 260 -48 28 -144 32 -210 9z m228 -268
c0 -20 -9 -48 -20 -64 -21 -29 -84 -60 -123 -60 -85 0 -141 53 -115 107 20 42
53 53 161 53 l97 0 0 -36z"/>
</g>
</svg>
